HIERARCHY
ROOT mixamorig:Hips
{
  OFFSET 0.000000 0.000000 0.000000
  CHANNELS 6 Xposition Yposition Zposition Zrotation Xrotation Yrotation
  JOINT mixamorig:Spine
  {
    OFFSET 0.002207 0.035357 0.003705
    CHANNELS 3 Zrotation Xrotation Yrotation
    JOINT mixamorig:Spine1
    {
      OFFSET 0.003005 0.048498 -0.015119
      CHANNELS 3 Zrotation Xrotation Yrotation
      JOINT mixamorig:Spine2
      {
        OFFSET 0.003606 0.058197 -0.018143
        CHANNELS 3 Zrotation Xrotation Yrotation
        JOINT mixamorig:Neck
        {
          OFFSET 0.003998 0.051946 -0.028221
          CHANNELS 3 Zrotation Xrotation Yrotation
          JOINT mixamorig:Head
          {
            OFFSET 0.006706 0.048531 -0.051623
            CHANNELS 3 Zrotation Xrotation Yrotation
            End Site
            {
              OFFSET 0.001676 0.012133 -0.012906
            }
          }
        }
        JOINT mixamorig:LeftShoulder
        {
          OFFSET 0.060861 0.038542 0.018154
          CHANNELS 3 Zrotation Xrotation Yrotation
          JOINT mixamorig:LeftArm
          {
            OFFSET 0.023104 -0.081868 -0.055197
            CHANNELS 3 Zrotation Xrotation Yrotation
            JOINT mixamorig:LeftForeArm
            {
              OFFSET 0.008469 -0.038338 -0.091959
              CHANNELS 3 Zrotation Xrotation Yrotation
              JOINT mixamorig:LeftHand
              {
                OFFSET 0.003988 -0.006813 -0.038551
                CHANNELS 3 Zrotation Xrotation Yrotation
                End Site
                {
                  OFFSET 0.000997 -0.001703 -0.009638
                }
              }
            }
          }
        }
        JOINT mixamorig:RightShoulder
        {
          OFFSET -0.056053 0.039054 -0.042344
          CHANNELS 3 Zrotation Xrotation Yrotation
          JOINT mixamorig:RightArm
          {
            OFFSET -0.011695 -0.075695 -0.071900
            CHANNELS 3 Zrotation Xrotation Yrotation
            JOINT mixamorig:RightForeArm
            {
              OFFSET 0.007981 -0.046526 -0.082476
              CHANNELS 3 Zrotation Xrotation Yrotation
              JOINT mixamorig:RightHand
              {
                OFFSET 0.010919 -0.008150 -0.030326
                CHANNELS 3 Zrotation Xrotation Yrotation
                End Site
                {
                  OFFSET 0.002730 -0.002037 -0.007582
                }
              }
            }
          }
        }
      }
    }
  }
  JOINT mixamorig:LeftUpLeg
  {
    OFFSET 0.034820 -0.013668 0.032821
    CHANNELS 3 Zrotation Xrotation Yrotation
    JOINT mixamorig:LeftLeg
    {
      OFFSET -0.025723 -0.030969 -0.132913
      CHANNELS 3 Zrotation Xrotation Yrotation
      JOINT mixamorig:LeftFoot
      {
        OFFSET -0.011062 -0.117471 -0.034516
        CHANNELS 3 Zrotation Xrotation Yrotation
        JOINT mixamorig:LeftToeBase
        {
          OFFSET -0.003304 -0.035913 -0.052284
          CHANNELS 3 Zrotation Xrotation Yrotation
          End Site
          {
            OFFSET -0.000826 -0.008978 -0.013071
          }
        }
      }
    }
  }
  JOINT mixamorig:RightUpLeg
  {
    OFFSET -0.036416 -0.012614 0.004827
    CHANNELS 3 Zrotation Xrotation Yrotation
    JOINT mixamorig:RightLeg
    {
      OFFSET 0.005070 -0.045724 -0.126799
      CHANNELS 3 Zrotation Xrotation Yrotation
      JOINT mixamorig:RightFoot
      {
        OFFSET 0.009583 -0.117456 -0.017324
        CHANNELS 3 Zrotation Xrotation Yrotation
        JOINT mixamorig:RightToeBase
        {
          OFFSET 0.014966 -0.030832 -0.048485
          CHANNELS 3 Zrotation Xrotation Yrotation
          End Site
          {
            OFFSET 0.003742 -0.007708 -0.012121
          }
        }
      }
    }
  }
}
MOTION
Frames: 17
Frame Time: 0.03333333
0.304053 0.038565 0.437087 -17.052086 50.414009 43.643051 -0.000000 -0.000000 0.000000 -0.000000 -0.000000 0.000000 -0.000000 -0.000000 0.000000 18.437107 -8.626281 -13.851907 0.000000 -0.000000 0.000000 -28.915856 -39.879326 -43.495568 -2.746408 -18.038113 15.050536 2.823083 -8.557457 14.666857 15.024972 15.955082 -40.105613 -40.926946 -53.222553 -55.595119 353.772443 -14.619592 -351.114427 -4.170514 -3.070567 11.727650 22.420549 22.813491 -28.238260 -92.374798 -66.299036 -105.928524 -9.720013 53.787327 2.615236 -8.288092 14.444954 48.963325 -19.044802 -25.775719 -51.854027 -50.307003 -51.931185 -46.392061 19.856375 6.560303 -24.105252 -12.762689 15.475637 49.094713 -9.377797 -9.753534 -47.618795
0.301878 0.038700 0.435530 -15.548077 50.713741 38.878495 0.000000 -0.000000 0.000000 0.000000 -0.000000 0.000000 0.000000 -0.000000 0.000000 17.844692 -5.844688 -12.844915 -0.000000 0.000000 -0.000000 -26.980562 -42.158990 -39.723544 -1.768380 -18.925591 10.999429 2.620689 -5.789417 14.358990 13.240158 16.665437 -34.446158 -37.369905 -53.600608 -49.036660 354.148909 -14.240865 -350.810463 -4.357600 -4.958808 9.311523 22.621747 23.524288 -27.875457 -92.069531 -69.891810 -105.041385 -10.375669 53.653043 3.401078 -8.976080 15.138015 47.623094 -18.555349 -27.384742 -50.658586 -47.048028 -54.522574 -42.912649 14.883924 9.676076 -21.183060 -8.715269 13.598468 43.554824 -6.810539 -10.572636 -42.764103
0.299822 0.038694 0.434347 -14.101477 50.878172 34.728727 -0.000000 0.000000 0.000000 -0.000000 0.000000 0.000000 -0.000000 0.000000 0.000000 17.108518 -3.406873 -12.223422 -0.000000 0.000000 -0.000000 -24.910016 -43.870295 -36.173487 -0.835914 -20.269810 6.441463 2.045831 -3.795151 14.191269 11.669332 18.101425 -28.674503 -34.766534 -54.265303 -43.955948 354.019566 -12.165546 -349.203651 -4.067309 -6.469569 8.011979 22.549479 22.324766 -28.958836 -91.194594 -72.895220 -103.757023 -11.187502 53.478019 4.377835 -9.310716 15.818836 46.288738 -18.206733 -28.739423 -49.444765 -44.685429 -57.025316 -40.688508 10.341419 14.222420 -17.908737 -3.964156 9.946485 36.703707 -4.431799 -10.058974 -36.746759
0.297782 0.038526 0.433441 -12.914570 50.998372 31.303116 0.000000 -0.000000 -0.000000 0.000000 -0.000000 -0.000000 0.000000 -0.000000 -0.000000 16.310492 -1.598801 -11.792718 0.000000 0.000000 0.000000 -22.793335 -45.219288 -32.988495 -0.123782 -21.723859 2.035624 1.263093 -2.933001 13.843208 10.267443 20.226782 -23.025512 -32.735945 -54.836349 -39.815925 353.748188 -9.482831 -347.311025 -3.461926 -7.508928 7.703623 22.127039 19.907404 -30.761712 -90.205986 -75.357211 -102.534621 -12.028960 53.353126 5.390863 -9.249388 16.460440 44.977424 -18.094368 -29.777883 -48.251896 -43.569755 -59.641795 -39.875823 6.622035 19.908117 -14.576616 0.116354 3.876341 29.390809 -1.734288 -7.919389 -30.113004
0.295612 0.038188 0.432674 -12.073434 51.124390 28.607687 0.000000 0.000000 -0.000000 0.000000 0.000000 -0.000000 0.000000 0.000000 -0.000000 15.537011 -0.499974 -11.441684 0.000000 0.000000 -0.000000 -20.676801 -46.471756 -30.302402 0.267362 -22.898504 -1.602879 0.486871 -3.270849 13.001589 8.946781 22.901320 -17.632275 -31.106551 -55.024638 -36.305199 353.659101 -7.146065 -345.932557 -2.675186 -7.882284 8.159935 21.298653 16.951077 -32.591126 -89.295426 -77.349282 -101.565804 -12.654544 53.194278 6.209662 -8.894914 17.060209 43.789520 -18.229875 -30.428406 -47.170812 -44.355043 -62.643821 -41.118202 3.817580 26.867052 -11.264709 2.641658 -4.472992 22.535565 1.228512 -4.211914 -23.865808
0.293186 0.037700 0.431928 -11.523961 51.270870 26.549848 -0.000000 -0.000000 0.000000 -0.000000 -0.000000 0.000000 -0.000000 -0.000000 0.000000 14.816965 -0.080336 -11.095167 -0.000000 0.000000 -0.000000 -18.615982 -47.882780 -28.223543 0.299197 -23.243693 -3.815627 -0.117262 -4.234371 11.758532 7.676319 25.262753 -13.028778 -29.828506 -54.809347 -33.347831 353.871866 -5.549172 -345.327370 -1.791331 -7.528219 8.969079 20.077872 13.956236 -33.934478 -88.349727 -78.924734 -100.736756 -12.929713 52.889599 6.742251 -8.416525 17.497935 42.861851 -18.484699 -30.588431 -46.292888 -47.932186 -66.084548 -45.372767 1.808943 34.769161 -7.982131 3.659539 -14.380984 16.715971 3.879738 1.096263 -18.855743
0.290453 0.037112 0.431151 -11.084275 51.421123 24.930572 0.000000 -0.000000 0.000000 0.000000 -0.000000 0.000000 0.000000 -0.000000 0.000000 14.108912 -0.224654 -10.699723 -0.000000 0.000000 -0.000000 -16.694840 -49.617868 -26.780426 -0.030964 -22.404225 -4.188385 -0.462154 -4.789480 10.817143 6.748413 26.149348 -10.285065 -28.829701 -54.279834 -30.876926 354.329890 -4.696920 -345.396208 -0.883990 -6.575462 9.757916 18.574762 11.218350 -34.564831 -85.957845 -80.139569 -98.445967 -12.345141 52.203084 6.508502 -8.082593 17.771098 42.215623 -18.732091 -30.264744 -45.582887 -54.934876 -69.499910 -53.131370 0.498293 42.791853 -4.990573 4.075965 -24.720173 13.252170 5.393870 7.493303 -16.268082
0.287451 0.036493 0.430356 -10.487223 51.523409 23.440908 -0.000000 -0.000000 -0.000000 -0.000000 -0.000000 -0.000000 -0.000000 -0.000000 -0.000000 13.312155 -0.671981 -10.301855 0.000000 0.000000 0.000000 -15.013583 -51.653117 -25.845391 -0.661997 -20.851457 -3.236492 -0.578167 -4.202908 10.783681 6.347056 25.448728 -9.604317 -27.979388 -53.518154 -28.711329 354.886794 -4.340705 -345.849589 -0.068183 -5.399136 10.333782 17.003804 8.888907 -34.586872 -79.394973 -81.021043 -91.569110 -10.261266 50.858630 4.841765 -8.178096 18.034337 41.595086 -18.812072 -29.690683 -44.745037 -64.667455 -72.196122 -63.351993 -0.148725 50.114733 -2.704805 6.707744 -33.910685 15.351573 4.592469 13.693770 -17.696857
0.284273 0.035912 0.429579 -9.552830 51.538760 21.820905 0.000000 -0.000000 0.000000 0.000000 -0.000000 0.000000 0.000000 -0.000000 0.000000 12.340933 -1.173159 -9.972902 0.000000 -0.000000 0.000000 -13.735769 -53.848647 -25.257082 -1.361018 -19.737513 -2.257872 -0.631999 -2.350874 11.591148 6.171410 24.254250 -9.707261 -27.166723 -52.614044 -26.669551 355.399126 -4.080366 -346.355902 0.495813 -4.578847 10.625595 15.626074 7.092703 -34.268799 -67.428354 -81.407266 -78.583575 -6.795209 48.726075 1.792592 -8.825362 18.481190 40.520711 -18.480777 -29.271600 -43.296470 -74.731613 -73.929545 -73.402327 -0.170991 56.169540 -1.371365 15.279714 -39.739360 26.025085 0.432262 18.920496 -23.233921
0.281013 0.035430 0.428826 -8.369124 51.503776 20.060924 -0.000000 -0.000000 0.000000 -0.000000 -0.000000 0.000000 -0.000000 -0.000000 0.000000 11.236403 -1.720924 -9.640467 0.000000 -0.000000 0.000000 -13.132587 -56.075817 -25.000817 -1.814040 -19.906640 -2.207703 -0.776992 0.316592 12.746159 5.957373 23.829857 -9.350008 -26.348111 -51.710268 -24.722917 355.794619 -3.581363 -346.705925 0.688885 -4.595126 10.602175 14.624170 5.937783 -33.797815 -53.232369 -81.093604 -62.743199 -2.889178 45.895199 -1.762136 -9.869085 19.197470 38.561888 -17.477264 -29.277340 -40.811152 -82.931464 -75.013329 -81.177867 0.375952 60.572708 -0.993322 28.464461 -39.585952 42.510365 -6.621798 23.427358 -30.755557
0.277742 0.035097 0.428082 -7.235023 51.511164 18.371282 0.000000 0.000000 0.000000 0.000000 0.000000 0.000000 0.000000 0.000000 0.000000 10.177447 -2.468543 -9.137318 0.000000 -0.000000 0.000000 -13.474685 -58.097895 -25.121594 -1.879033 -21.343421 -3.048974 -0.961641 2.951447 13.881223 5.837812 24.709633 -8.642437 -25.484816 -51.017308 -22.975935 356.057274 -2.750030 -346.870366 0.502180 -5.524426 10.260691 14.035071 5.460883 -33.188438 -41.414972 -80.279770 -49.009150 0.362417 42.729534 -4.814420 -10.806764 19.828377 35.417969 -15.486881 -29.463890 -36.938848 -88.797352 -75.822446 -86.532491 1.373584 63.153973 -1.382363 39.057255 -34.022344 56.107705 -14.525033 27.013319 -37.263044
0.274550 0.034938 0.427359 -6.416411 51.623462 16.962614 -0.000000 0.000000 -0.000000 -0.000000 0.000000 -0.000000 -0.000000 0.000000 -0.000000 9.351911 -3.445576 -8.417294 0.000000 0.000000 -0.000000 -14.804656 -59.468948 -25.490259 -1.603928 -23.300058 -3.944505 -0.910318 4.794478 14.839655 6.185088 26.353996 -8.800077 -24.499539 -50.720730 -21.514353 356.195825 -1.713330 -346.945251 0.021671 -7.053632 9.674207 13.783469 5.595196 -32.384498 -33.346050 -79.452839 -39.156957 2.153561 39.869750 -6.677435 -10.821867 19.486322 30.804255 -12.288665 -28.998555 -31.386282 -92.940570 -76.534125 -90.411119 2.414663 64.167061 -2.021809 42.267407 -28.681813 60.475486 -19.784825 27.677489 -39.793268
0.271582 0.034935 0.426729 -5.982728 51.825394 15.910103 -0.000000 0.000000 -0.000000 -0.000000 0.000000 -0.000000 -0.000000 0.000000 -0.000000 8.827839 -4.490789 -7.609149 -0.000000 -0.000000 -0.000000 -16.789579 -59.847280 -25.795668 -1.065040 -24.519030 -3.734126 -0.392939 5.547293 15.281344 7.189393 27.357217 -10.805616 -23.366606 -50.802723 -20.324396 356.272454 -0.677540 -347.086584 -0.598163 -8.672196 9.103226 13.699422 6.059028 -31.460045 -28.214005 -78.990179 -32.697896 2.159168 37.906364 -7.072186 -9.267480 17.378490 24.683434 -8.303725 -26.911701 -24.353366 -96.111960 -77.175764 -93.735297 2.971927 64.238972 -2.276926 39.353365 -26.575386 57.018331 -20.951360 24.533960 -38.441252
0.269012 0.035024 0.426288 -5.818840 52.046465 15.167486 0.000000 0.000000 -0.000000 0.000000 0.000000 -0.000000 0.000000 0.000000 -0.000000 8.542190 -5.404484 -6.879899 0.000000 0.000000 -0.000000 -18.898212 -59.301353 -25.791716 -0.349619 -23.992199 -1.737532 0.502553 5.303562 14.810428 8.495902 26.537143 -14.370958 -22.201979 -51.016215 -19.347261 356.412151 0.197226 -347.450324 -1.152563 -9.830722 9.006840 13.538287 6.313772 -30.687857 -25.018943 -78.983129 -28.746186 0.707145 36.887244 -6.200065 -6.691550 13.818935 17.718749 -4.451675 -23.269475 -16.809876 -98.669168 -77.713240 -96.796070 2.920864 63.966527 -1.953051 33.370908 -25.646776 49.783621 -19.659524 19.126842 -35.346107
0.266969 0.035122 0.426104 -5.728105 52.203311 14.613407 -0.000000 -0.000000 -0.000000 -0.000000 -0.000000 -0.000000 -0.000000 -0.000000 -0.000000 8.374508 -6.047743 -6.318482 -0.000000 0.000000 -0.000000 -20.724270 -58.113405 -25.397387 0.324421 -21.458901 1.888630 1.507568 3.725754 13.216122 9.570926 24.190351 -18.395707 -21.177895 -51.112860 -18.535338 356.690596 0.890633 -348.060935 -1.507383 -10.282594 9.549338 13.138520 6.008283 -30.209574 -23.003791 -79.255047 -26.388594 -1.358383 36.407315 -4.703719 -4.489882 9.991492 10.957446 -1.177989 -19.160478 -9.829562 -100.289869 -78.141359 -99.008322 2.605625 63.622462 -1.388403 26.819649 -23.919474 42.065281 -17.726085 12.979734 -32.058276
0.265479 0.035148 0.426173 -5.564712 52.240995 14.115335 0.000000 -0.000000 -0.000000 0.000000 -0.000000 -0.000000 0.000000 -0.000000 -0.000000 8.229037 -6.364595 -5.928141 -0.000000 0.000000 0.000000 -22.105431 -56.559482 -24.642751 0.738216 -17.634589 6.023453 2.194079 0.317670 10.861303 10.324103 21.905943 -21.889844 -20.347629 -51.039450 -17.836912 357.051933 1.464141 -348.782063 -1.714165 -10.358806 10.121163 12.575539 5.495158 -29.649330 -21.645150 -79.624766 -24.877236 -3.292998 36.234950 -3.210325 -3.510115 6.790613 5.084042 1.649851 -15.520532 -3.962728 -100.400651 -78.519292 -99.525039 2.455427 63.221997 -1.047148 21.295549 -21.061975 35.696981 -16.133078 7.017279 -29.356776
0.264468 0.035042 0.426433 -5.323675 52.162783 13.621224 -0.000000 0.000000 0.000000 -0.000000 0.000000 0.000000 -0.000000 0.000000 0.000000 8.070593 -6.372093 -5.721679 0.000000 -0.000000 0.000000 -23.088592 -55.012721 -23.745004 0.961603 -13.939680 9.222808 2.184388 -4.343836 8.415421 10.963687 21.127115 -24.154497 -19.609292 -50.862470 -17.191832 357.405961 1.857848 -349.507584 -1.887130 -10.578513 9.849272 12.043224 5.489415 -28.352467 -20.727467 -80.128369 -23.960751 -4.930195 36.499567 -1.857762 -3.724961 4.580157 0.204235 4.289299 -12.832289 0.812118 -98.906725 -78.896510 -98.149558 2.690288 62.733721 -1.170398 17.386374 -17.670784 31.250054 -15.228498 1.823566 -27.496566
